<svg width="795" height="76" viewBox="0 0 795 76" fill="none" xmlns="http://www.w3.org/2000/svg">
<path d="M795 75.264L723 0L756.6 73.632H723V0L761.4 21.312V1.632H795V75.264Z" fill="#FCFCFC"/>
<path d="M680.96 74.92C660.512 74.92 644 58.408 644 37.96C644 17.512 660.512 1 680.96 1C701.408 1 717.92 17.512 717.92 37.96C717.92 58.408 701.408 74.92 680.96 74.92Z" fill="#FCFCFC"/>
<path d="M603 74V2H638.52V74H603Z" fill="#FCFCFC"/>
<path d="M540.28 74V35.6H523V2H593.08V35.6H575.8V74H540.28Z" fill="#FCFCFC"/>
<path d="M441 74.632L481.8 1L522.6 74.632H483.336L511.815 2.63196L470.28 58.696L480.264 74.632H441Z" fill="#FCFCFC"/>
<path d="M366 74V2H436.08V24.08H401.52V35.6H415.92V47.12H436.08V74H366Z" fill="#FCFCFC"/>
<path d="M289.402 74V2H333.178C348.154 2 360.251 14.096 360.251 29.072C360.251 38.96 297.274 12.796 289.402 17.5L360.827 74H289.402Z" fill="#FCFCFC"/>
<path d="M253.992 74.92C233.543 74.92 217.031 58.408 217.031 37.96C217.031 17.512 233.543 1 253.992 1C264.264 1 273.48 5.128 280.104 11.848L181 73.96L280.104 64.072C273.48 70.792 264.167 74.92 253.992 74.92Z" fill="#FCFCFC"/>
<path d="M75.6475 74L101.567 35.6H76.6075V2H147.551L120.479 40.4H146.687V74H75.6475Z" fill="#FCFCFC"/>
<path d="M0 74V2H29.568L36.48 14L43.968 2H69.888L48.96 35.888L70.848 74H0Z" fill="#FCFCFC"/>
</svg>
