<svg width="578" height="161" viewBox="0 0 578 161" fill="none" xmlns="http://www.w3.org/2000/svg">
<path d="M577.969 160.264L505.969 85L539.568 158.632H505.969V85L544.368 106.312V86.632H577.969V160.264Z" fill="#FCFCFC"/>
<path d="M463.929 159.92C443.481 159.92 426.969 143.408 426.969 122.96C426.969 102.512 443.481 86 463.929 86C484.377 86 500.888 102.512 500.888 122.96C500.888 143.408 484.377 159.92 463.929 159.92Z" fill="#FCFCFC"/>
<path d="M385.969 159V87H421.488V159H385.969Z" fill="#FCFCFC"/>
<path d="M323.249 159V120.6H305.969V87H376.048V120.6H358.769V159H323.249Z" fill="#FCFCFC"/>
<path d="M223.969 159.632L264.769 86L305.569 159.632H266.305L294.784 87.632L253.249 143.696L263.233 159.632H223.969Z" fill="#FCFCFC"/>
<path d="M148.969 159V87H219.049V109.08H184.489V120.6H198.889V132.12H219.049V159H148.969Z" fill="#FCFCFC"/>
<path d="M72.371 159V87H116.147C131.123 87 143.219 99.096 143.219 114.072C143.219 123.96 80.243 97.796 72.371 102.5L143.795 159H72.371Z" fill="#FCFCFC"/>
<path d="M36.96 159.92C16.512 159.92 0 143.408 0 122.96C0 102.512 16.512 86 36.96 86C47.232 86 56.448 90.128 63.072 96.848L0 159.92L63.072 149.072C56.448 155.792 47.136 159.92 36.96 159.92Z" fill="#FCFCFC"/>
<path d="M76.616 72L102.536 33.6H77.576V0H148.52L121.448 38.4H147.656V72H76.616Z" fill="#FCFCFC"/>
<path d="M0.968506 72V0H30.5365L37.4485 12L44.9365 0H70.8565L49.9285 33.888L71.8165 72H0.968506Z" fill="#FCFCFC"/>
</svg>
